<?xml version="1.0" encoding="UTF-8"?>
<!DOCTYPE svg PUBLIC "-//W3C//DTD SVG 1.1//EN" "http://www.w3.org/Graphics/SVG/1.1/DTD/svg11.dtd">
<!-- Creator: CorelDRAW -->
<svg xmlns="http://www.w3.org/2000/svg" xml:space="preserve" width="4.35142in" height="1.10122in" version="1.1" style="shape-rendering:geometricPrecision; text-rendering:geometricPrecision; image-rendering:optimizeQuality; fill-rule:evenodd; clip-rule:evenodd"
viewBox="0 0 1440.09 364.45"
 xmlns:xlink="http://www.w3.org/1999/xlink"
 xmlns:xodm="http://www.corel.com/coreldraw/odm/2003">
 <defs>
  <style type="text/css">
   <![CDATA[
    .str0 {stroke:#FBFFFF;stroke-width:6.9;stroke-miterlimit:2.61313}
    .fil1 {fill:none;fill-rule:nonzero}
    .fil0 {fill:black}
    .fil3 {fill:#118DF0;fill-rule:nonzero}
    .fil2 {fill:#13214F;fill-rule:nonzero}
   ]]>
  </style>
 </defs>
 <rect class="fil0" x="1596.55" y="-100.41" width="1158.32" height="661.9"/>
 <g id="Layer_x0020_1">
  <metadata id="CorelCorpID_0Corel-Layer"/>
  <g id="_1542790513584">
   <g>
    <path class="fil1 str0" d="M471.2 62.86c1.28,0 2.29,0.47 3.05,1.4 0.76,0.93 1.13,2.07 1.13,3.4l0 19.61c0,2.53 -1.04,4.13 -3.13,4.8l-5.74 1.6 0 109.04c0,1.47 -0.41,2.63 -1.22,3.5 -0.81,0.87 -1.8,1.3 -2.96,1.3l-37.43 0c-1.62,0 -2.9,-0.87 -3.83,-2.6l-42.3 -95.83 1.39 67.62 5.92 1.8c0.93,0.27 1.68,0.83 2.26,1.7 0.58,0.87 0.87,1.83 0.87,2.9l0 19.61c0,1.47 -0.41,2.63 -1.22,3.5 -0.81,0.87 -1.86,1.3 -3.13,1.3l-40.39 0c-1.16,0 -2.15,-0.43 -2.96,-1.3 -0.81,-0.87 -1.22,-2.03 -1.22,-3.5l0 -19.61c0,-2.4 1.04,-3.93 3.13,-4.6l5.74 -1.8 0 -83.03 -5.74 -1.6c-2.09,-0.67 -3.13,-2.27 -3.13,-4.8l0 -19.61c0,-1.33 0.41,-2.47 1.22,-3.4 0.81,-0.93 1.8,-1.4 2.96,-1.4l46.31 0c1.62,0 2.84,0.87 3.66,2.6l42.65 95.63 -1.39 -67.42 -5.92 -1.6c-2.09,-0.67 -3.13,-2.27 -3.13,-4.8l0 -19.61c0,-1.33 0.41,-2.47 1.22,-3.4 0.81,-0.93 1.8,-1.4 2.96,-1.4l40.39 0z"/>
   </g>
   <g>
    <path id="_1" class="fil1 str0" d="M577.57 165.49c1.16,0 2.15,0.47 2.96,1.4 0.81,0.93 1.22,2.07 1.22,3.4l0 32.41c0,1.47 -0.41,2.63 -1.22,3.5 -0.81,0.87 -1.8,1.3 -2.96,1.3l-90 0c-1.16,0 -2.15,-0.47 -2.96,-1.4 -0.81,-0.93 -1.22,-2.07 -1.22,-3.4l0 -19.61c0,-2.4 1.04,-3.93 3.13,-4.6l5.74 -1.8 0 -83.03 -5.74 -1.8c-0.93,-0.27 -1.68,-0.83 -2.26,-1.7 -0.58,-0.87 -0.87,-1.83 -0.87,-2.9l0 -19.61c0,-1.07 0.41,-2.2 1.22,-3.4 0.81,-0.93 1.8,-1.4 2.96,-1.4l89.48 0c1.16,0 2.15,0.47 2.96,1.4 0.81,0.93 1.22,2.07 1.22,3.4l0 32.41c0,1.33 -0.41,2.47 -1.22,3.4 -0.81,0.93 -1.8,1.4 -2.96,1.4l-17.06 0c-0.93,0 -1.77,-0.33 -2.52,-1 -0.75,-0.67 -1.25,-1.53 -1.48,-2.6l-1.57 -6.6 -31.16 0 0 24.01 27.51 0c1.28,0 2.29,0.47 3.04,1.4 0.75,0.93 1.13,2.07 1.13,3.4l0 21.21c0,1.47 -0.38,2.67 -1.13,3.6 -0.75,0.93 -1.77,1.4 -3.04,1.4l-27.51 0 0 26.01 31.68 0 1.57 -6.6c0.23,-1.07 0.73,-1.93 1.48,-2.6 0.75,-0.67 1.6,-1 2.53,-1l17.06 0z"/>
   </g>
   <g>
    <path id="_2" class="fil1 str0" d="M705.69 182.7l0 19.61c0,1.47 -0.41,2.63 -1.22,3.5 -0.81,0.87 -1.8,1.3 -2.96,1.3l-43.35 0.2c-1.16,0 -2.15,-0.47 -2.96,-1.4 -0.81,-0.93 -1.22,-2.07 -1.22,-3.4l0 -19.61c0,-2.27 0.73,-3.7 2.18,-4.3 1.45,-0.6 2.93,-1.1 4.44,-1.5l-11.66 -22.41 -11.66 22.41c1.51,0.4 2.99,0.9 4.44,1.5 1.45,0.6 2.18,2.03 2.18,4.3l0 19.61c0,1.33 -0.41,2.47 -1.22,3.4 -0.81,0.93 -1.8,1.4 -2.96,1.4l-43.7 -0.2c-1.16,0 -2.15,-0.43 -2.96,-1.3 -0.81,-0.87 -1.22,-2.03 -1.22,-3.5l0 -19.61c0,-1.07 0.29,-2.03 0.87,-2.9 0.58,-0.87 1.33,-1.43 2.26,-1.7l7.31 -2.2 24.02 -43.21 -21.41 -38.81 -7.31 -2.2c-0.93,-0.27 -1.68,-0.87 -2.26,-1.8 -0.58,-0.93 -0.87,-1.93 -0.87,-3l0 -19.61c0,-1.33 0.41,-2.47 1.22,-3.4 0.81,-0.93 1.8,-1.4 2.96,-1.4l43.17 0c1.28,0 2.29,0.47 3.05,1.4 0.75,0.93 1.13,2.07 1.13,3.4l0 19.61c0,2.27 -0.73,3.7 -2.18,4.3 -1.45,0.6 -2.93,1.1 -4.44,1.5l9.58 18.81 9.57 -18.81c-1.51,-0.4 -3.02,-0.9 -4.53,-1.5 -1.51,-0.6 -2.26,-2.03 -2.26,-4.3l0 -19.61c0,-1.33 0.41,-2.47 1.22,-3.4 0.81,-0.93 1.8,-1.4 2.96,-1.4l43.17 0c1.28,0 2.29,0.47 3.05,1.4 0.76,0.93 1.13,2.07 1.13,3.4l0 19.61c0,2.53 -1.04,4.13 -3.13,4.8l-7.49 2.2 -20.72 38.81 23.33 43.21 7.31 2.2c0.93,0.27 1.68,0.83 2.26,1.7 0.58,0.87 0.87,1.83 0.87,2.9z"/>
   </g>
   <g>
    <path id="_3" class="fil1 str0" d="M812.23 62.46c0.93,0 1.92,0.47 2.96,1.4 0.81,1.2 1.22,2.33 1.22,3.4l0 32.44c0,1.3 -0.41,2.43 -1.22,3.37 -0.81,0.93 -1.8,1.4 -2.96,1.4l-17.06 0c-0.93,0 -1.8,-0.33 -2.61,-0.97 -0.81,-0.67 -1.33,-1.53 -1.57,-2.57l-1.39 -6.67 -7.66 0 0 82.03 5.74 1.8c2.09,0.67 3.13,2.2 3.13,4.6l0 19.61c0,1.47 -0.41,2.63 -1.22,3.5 -0.81,0.87 -1.8,1.3 -2.96,1.3l-40.39 0c-1.28,0 -2.29,-0.43 -3.05,-1.3 -0.75,-0.87 -1.13,-2.03 -1.13,-3.5l0 -19.61c0,-2.4 1.04,-3.93 3.13,-4.6l5.74 -1.8 0 -82.03 -7.66 0 -1.39 6.67c-0.23,1.03 -0.76,1.9 -1.57,2.57 -0.81,0.63 -1.68,0.97 -2.61,0.97l-17.06 0c-1.16,0 -2.15,-0.47 -2.96,-1.4 -0.81,-0.93 -1.22,-2.07 -1.22,-3.37l0 -32.44c0,-1.07 0.41,-2.2 1.22,-3.4 1.04,-0.93 2.03,-1.4 2.96,-1.4l91.57 0z"/>
   </g>
   <g>
    <path id="_4" class="fil1 str0" d="M977.09 165.49c1.16,0 2.15,0.47 2.96,1.4 0.81,0.93 1.22,2.07 1.22,3.4l0 32.41c0,1.47 -0.41,2.6 -1.22,3.4 -0.7,0.93 -1.68,1.4 -2.96,1.4l-86.34 0c-1.16,0 -2.15,-0.47 -2.96,-1.4 -0.81,-0.93 -1.22,-2.07 -1.22,-3.4l0 -19.61c0,-2.4 1.04,-3.93 3.13,-4.6l5.74 -1.8 0 -83.03 -5.74 -1.6c-2.09,-0.67 -3.13,-2.27 -3.13,-4.8l0 -19.61c0,-1.33 0.41,-2.47 1.22,-3.4 0.81,-0.93 1.8,-1.4 2.96,-1.4l40.39 0c1.28,0 2.32,0.47 3.13,1.4 0.81,0.93 1.22,2.07 1.22,3.4l0 19.61c0,1.07 -0.29,2.07 -0.87,3 -0.58,0.93 -1.33,1.53 -2.26,1.8l-5.92 1.6 0 82.03 28.03 0 1.57 -6.6c0.23,-1.07 0.72,-1.93 1.48,-2.6 0.76,-0.67 1.6,-1 2.53,-1l17.06 0z"/>
   </g>
   <g>
    <path id="_5" class="fil1 str0" d="M1085.37 165.49c1.16,0 2.15,0.47 2.96,1.4 0.81,0.93 1.22,2.07 1.22,3.4l0 32.41c0,1.47 -0.41,2.63 -1.22,3.5 -0.81,0.87 -1.8,1.3 -2.96,1.3l-90 0c-1.16,0 -2.15,-0.47 -2.96,-1.4 -0.81,-0.93 -1.22,-2.07 -1.22,-3.4l0 -19.61c0,-2.4 1.04,-3.93 3.13,-4.6l5.74 -1.8 0 -83.03 -5.74 -1.8c-0.93,-0.27 -1.68,-0.83 -2.26,-1.7 -0.58,-0.87 -0.87,-1.83 -0.87,-2.9l0 -19.61c0,-1.07 0.41,-2.2 1.22,-3.4 0.81,-0.93 1.8,-1.4 2.96,-1.4l89.48 0c1.16,0 2.15,0.47 2.96,1.4 0.81,0.93 1.22,2.07 1.22,3.4l0 32.41c0,1.33 -0.41,2.47 -1.22,3.4 -0.81,0.93 -1.8,1.4 -2.96,1.4l-17.06 0c-0.93,0 -1.77,-0.33 -2.53,-1 -0.75,-0.67 -1.25,-1.53 -1.48,-2.6l-1.57 -6.6 -31.16 0 0 24.01 27.51 0c1.28,0 2.29,0.47 3.05,1.4 0.75,0.93 1.13,2.07 1.13,3.4l0 21.21c0,1.47 -0.38,2.67 -1.13,3.6 -0.76,0.93 -1.77,1.4 -3.05,1.4l-27.51 0 0 26.01 31.68 0 1.57 -6.6c0.23,-1.07 0.73,-1.93 1.48,-2.6 0.75,-0.67 1.6,-1 2.53,-1l17.06 0z"/>
   </g>
   <g>
    <path id="_6" class="fil1 str0" d="M1219.41 62.46c1.28,0 2.29,0.47 3.05,1.4 0.75,0.93 1.13,2.07 1.13,3.4l0 19.61c0,2.53 -1.04,4.13 -3.13,4.8l-6.62 2 -30.99 110.24c-0.23,1.07 -0.73,1.9 -1.48,2.5 -0.76,0.6 -1.6,0.9 -2.53,0.9l-33.95 0c-2.09,0 -3.42,-1.13 -4,-3.4l-30.81 -110.24 -6.79 -2c-2.09,-0.67 -3.13,-2.27 -3.13,-4.8l0 -19.61c0,-1.33 0.41,-2.47 1.22,-3.4 0.81,-0.93 1.8,-1.4 2.96,-1.4l40.91 0c1.28,0 2.29,0.47 3.05,1.4 0.75,0.93 1.13,2.07 1.13,3.4l0 19.61c0,2.53 -1.04,4.13 -3.13,4.8l-4.53 1.4 20.02 72.62 20.19 -72.83 -4.53 -1.2c-2.09,-0.67 -3.13,-2.27 -3.13,-4.8l0 -19.61c0,-1.33 0.41,-2.47 1.22,-3.4 0.81,-0.93 1.8,-1.4 2.96,-1.4l40.91 0z"/>
   </g>
   <g>
    <path id="_7" class="fil1 str0" d="M1322.81 165.49c1.16,0 2.15,0.47 2.96,1.4 0.81,0.93 1.22,2.07 1.22,3.4l0 32.41c0,1.47 -0.41,2.63 -1.22,3.5 -0.81,0.87 -1.8,1.3 -2.96,1.3l-90 0c-1.16,0 -2.15,-0.47 -2.96,-1.4 -0.81,-0.93 -1.22,-2.07 -1.22,-3.4l0 -19.61c0,-2.4 1.04,-3.93 3.13,-4.6l5.74 -1.8 0 -83.03 -5.74 -1.8c-0.93,-0.27 -1.68,-0.83 -2.26,-1.7 -0.58,-0.87 -0.87,-1.83 -0.87,-2.9l0 -19.61c0,-1.07 0.41,-2.2 1.22,-3.4 0.81,-0.93 1.8,-1.4 2.96,-1.4l89.48 0c1.16,0 2.15,0.47 2.96,1.4 0.81,0.93 1.22,2.07 1.22,3.4l0 32.41c0,1.33 -0.41,2.47 -1.22,3.4 -0.81,0.93 -1.8,1.4 -2.96,1.4l-17.06 0c-0.93,0 -1.77,-0.33 -2.53,-1 -0.75,-0.67 -1.25,-1.53 -1.48,-2.6l-1.57 -6.6 -31.16 0 0 24.01 27.51 0c1.28,0 2.29,0.47 3.05,1.4 0.75,0.93 1.13,2.07 1.13,3.4l0 21.21c0,1.47 -0.38,2.67 -1.13,3.6 -0.76,0.93 -1.77,1.4 -3.05,1.4l-27.51 0 0 26.01 31.68 0 1.57 -6.6c0.23,-1.07 0.73,-1.93 1.48,-2.6 0.75,-0.67 1.6,-1 2.53,-1l17.06 0z"/>
   </g>
   <g>
    <path id="_8" class="fil1 str0" d="M1427.61 165.49c1.16,0 2.15,0.47 2.96,1.4 0.81,0.93 1.22,2.07 1.22,3.4l0 32.41c0,1.47 -0.41,2.6 -1.22,3.4 -0.7,0.93 -1.68,1.4 -2.96,1.4l-86.34 0c-1.16,0 -2.15,-0.47 -2.96,-1.4 -0.81,-0.93 -1.22,-2.07 -1.22,-3.4l0 -19.61c0,-2.4 1.04,-3.93 3.13,-4.6l5.74 -1.8 0 -83.03 -5.74 -1.6c-2.09,-0.67 -3.13,-2.27 -3.13,-4.8l0 -19.61c0,-1.33 0.41,-2.47 1.22,-3.4 0.81,-0.93 1.8,-1.4 2.96,-1.4l40.39 0c1.28,0 2.32,0.47 3.13,1.4 0.81,0.93 1.22,2.07 1.22,3.4l0 19.61c0,1.07 -0.29,2.07 -0.87,3 -0.58,0.93 -1.33,1.53 -2.26,1.8l-5.92 1.6 0 82.03 28.03 0 1.57 -6.6c0.23,-1.07 0.73,-1.93 1.48,-2.6 0.76,-0.67 1.6,-1 2.53,-1l17.06 0z"/>
   </g>
   <path id="_9" class="fil2" d="M471.2 62.86c1.28,0 2.29,0.47 3.05,1.4 0.76,0.93 1.13,2.07 1.13,3.4l0 19.61c0,2.53 -1.04,4.13 -3.13,4.8l-5.74 1.6 0 109.04c0,1.47 -0.41,2.63 -1.22,3.5 -0.81,0.87 -1.8,1.3 -2.96,1.3l-37.43 0c-1.62,0 -2.9,-0.87 -3.83,-2.6l-42.3 -95.83 1.39 67.62 5.92 1.8c0.93,0.27 1.68,0.83 2.26,1.7 0.58,0.87 0.87,1.83 0.87,2.9l0 19.61c0,1.47 -0.41,2.63 -1.22,3.5 -0.81,0.87 -1.86,1.3 -3.13,1.3l-40.39 0c-1.16,0 -2.15,-0.43 -2.96,-1.3 -0.81,-0.87 -1.22,-2.03 -1.22,-3.5l0 -19.61c0,-2.4 1.04,-3.93 3.13,-4.6l5.74 -1.8 0 -83.03 -5.74 -1.6c-2.09,-0.67 -3.13,-2.27 -3.13,-4.8l0 -19.61c0,-1.33 0.41,-2.47 1.22,-3.4 0.81,-0.93 1.8,-1.4 2.96,-1.4l46.31 0c1.62,0 2.84,0.87 3.66,2.6l42.65 95.63 -1.39 -67.42 -5.92 -1.6c-2.09,-0.67 -3.13,-2.27 -3.13,-4.8l0 -19.61c0,-1.33 0.41,-2.47 1.22,-3.4 0.81,-0.93 1.8,-1.4 2.96,-1.4l40.39 0z"/>
   <path id="_10" class="fil2" d="M577.57 165.49c1.16,0 2.15,0.47 2.96,1.4 0.81,0.93 1.22,2.07 1.22,3.4l0 32.41c0,1.47 -0.41,2.63 -1.22,3.5 -0.81,0.87 -1.8,1.3 -2.96,1.3l-90 0c-1.16,0 -2.15,-0.47 -2.96,-1.4 -0.81,-0.93 -1.22,-2.07 -1.22,-3.4l0 -19.61c0,-2.4 1.04,-3.93 3.13,-4.6l5.74 -1.8 0 -83.03 -5.74 -1.8c-0.93,-0.27 -1.68,-0.83 -2.26,-1.7 -0.58,-0.87 -0.87,-1.83 -0.87,-2.9l0 -19.61c0,-1.07 0.41,-2.2 1.22,-3.4 0.81,-0.93 1.8,-1.4 2.96,-1.4l89.48 0c1.16,0 2.15,0.47 2.96,1.4 0.81,0.93 1.22,2.07 1.22,3.4l0 32.41c0,1.33 -0.41,2.47 -1.22,3.4 -0.81,0.93 -1.8,1.4 -2.96,1.4l-17.06 0c-0.93,0 -1.77,-0.33 -2.52,-1 -0.75,-0.67 -1.25,-1.53 -1.48,-2.6l-1.57 -6.6 -31.16 0 0 24.01 27.51 0c1.28,0 2.29,0.47 3.04,1.4 0.75,0.93 1.13,2.07 1.13,3.4l0 21.21c0,1.47 -0.38,2.67 -1.13,3.6 -0.75,0.93 -1.77,1.4 -3.04,1.4l-27.51 0 0 26.01 31.68 0 1.57 -6.6c0.23,-1.07 0.73,-1.93 1.48,-2.6 0.75,-0.67 1.6,-1 2.53,-1l17.06 0z"/>
   <path id="_11" class="fil2" d="M705.69 182.7l0 19.61c0,1.47 -0.41,2.63 -1.22,3.5 -0.81,0.87 -1.8,1.3 -2.96,1.3l-43.35 0.2c-1.16,0 -2.15,-0.47 -2.96,-1.4 -0.81,-0.93 -1.22,-2.07 -1.22,-3.4l0 -19.61c0,-2.27 0.73,-3.7 2.18,-4.3 1.45,-0.6 2.93,-1.1 4.44,-1.5l-11.66 -22.41 -11.66 22.41c1.51,0.4 2.99,0.9 4.44,1.5 1.45,0.6 2.18,2.03 2.18,4.3l0 19.61c0,1.33 -0.41,2.47 -1.22,3.4 -0.81,0.93 -1.8,1.4 -2.96,1.4l-43.7 -0.2c-1.16,0 -2.15,-0.43 -2.96,-1.3 -0.81,-0.87 -1.22,-2.03 -1.22,-3.5l0 -19.61c0,-1.07 0.29,-2.03 0.87,-2.9 0.58,-0.87 1.33,-1.43 2.26,-1.7l7.31 -2.2 24.02 -43.21 -21.41 -38.81 -7.31 -2.2c-0.93,-0.27 -1.68,-0.87 -2.26,-1.8 -0.58,-0.93 -0.87,-1.93 -0.87,-3l0 -19.61c0,-1.33 0.41,-2.47 1.22,-3.4 0.81,-0.93 1.8,-1.4 2.96,-1.4l43.17 0c1.28,0 2.29,0.47 3.05,1.4 0.75,0.93 1.13,2.07 1.13,3.4l0 19.61c0,2.27 -0.73,3.7 -2.18,4.3 -1.45,0.6 -2.93,1.1 -4.44,1.5l9.58 18.81 9.57 -18.81c-1.51,-0.4 -3.02,-0.9 -4.53,-1.5 -1.51,-0.6 -2.26,-2.03 -2.26,-4.3l0 -19.61c0,-1.33 0.41,-2.47 1.22,-3.4 0.81,-0.93 1.8,-1.4 2.96,-1.4l43.17 0c1.28,0 2.29,0.47 3.05,1.4 0.76,0.93 1.13,2.07 1.13,3.4l0 19.61c0,2.53 -1.04,4.13 -3.13,4.8l-7.49 2.2 -20.72 38.81 23.33 43.21 7.31 2.2c0.93,0.27 1.68,0.83 2.26,1.7 0.58,0.87 0.87,1.83 0.87,2.9z"/>
   <path id="_12" class="fil2" d="M812.23 62.46c0.93,0 1.92,0.47 2.96,1.4 0.81,1.2 1.22,2.33 1.22,3.4l0 32.44c0,1.3 -0.41,2.43 -1.22,3.37 -0.81,0.93 -1.8,1.4 -2.96,1.4l-17.06 0c-0.93,0 -1.8,-0.33 -2.61,-0.97 -0.81,-0.67 -1.33,-1.53 -1.57,-2.57l-1.39 -6.67 -7.66 0 0 82.03 5.74 1.8c2.09,0.67 3.13,2.2 3.13,4.6l0 19.61c0,1.47 -0.41,2.63 -1.22,3.5 -0.81,0.87 -1.8,1.3 -2.96,1.3l-40.39 0c-1.28,0 -2.29,-0.43 -3.05,-1.3 -0.75,-0.87 -1.13,-2.03 -1.13,-3.5l0 -19.61c0,-2.4 1.04,-3.93 3.13,-4.6l5.74 -1.8 0 -82.03 -7.66 0 -1.39 6.67c-0.23,1.03 -0.76,1.9 -1.57,2.57 -0.81,0.63 -1.68,0.97 -2.61,0.97l-17.06 0c-1.16,0 -2.15,-0.47 -2.96,-1.4 -0.81,-0.93 -1.22,-2.07 -1.22,-3.37l0 -32.44c0,-1.07 0.41,-2.2 1.22,-3.4 1.04,-0.93 2.03,-1.4 2.96,-1.4l91.57 0z"/>
   <path id="_13" class="fil2" d="M977.09 165.49c1.16,0 2.15,0.47 2.96,1.4 0.81,0.93 1.22,2.07 1.22,3.4l0 32.41c0,1.47 -0.41,2.6 -1.22,3.4 -0.7,0.93 -1.68,1.4 -2.96,1.4l-86.34 0c-1.16,0 -2.15,-0.47 -2.96,-1.4 -0.81,-0.93 -1.22,-2.07 -1.22,-3.4l0 -19.61c0,-2.4 1.04,-3.93 3.13,-4.6l5.74 -1.8 0 -83.03 -5.74 -1.6c-2.09,-0.67 -3.13,-2.27 -3.13,-4.8l0 -19.61c0,-1.33 0.41,-2.47 1.22,-3.4 0.81,-0.93 1.8,-1.4 2.96,-1.4l40.39 0c1.28,0 2.32,0.47 3.13,1.4 0.81,0.93 1.22,2.07 1.22,3.4l0 19.61c0,1.07 -0.29,2.07 -0.87,3 -0.58,0.93 -1.33,1.53 -2.26,1.8l-5.92 1.6 0 82.03 28.03 0 1.57 -6.6c0.23,-1.07 0.72,-1.93 1.48,-2.6 0.76,-0.67 1.6,-1 2.53,-1l17.06 0z"/>
   <path id="_14" class="fil2" d="M1085.37 165.49c1.16,0 2.15,0.47 2.96,1.4 0.81,0.93 1.22,2.07 1.22,3.4l0 32.41c0,1.47 -0.41,2.63 -1.22,3.5 -0.81,0.87 -1.8,1.3 -2.96,1.3l-90 0c-1.16,0 -2.15,-0.47 -2.96,-1.4 -0.81,-0.93 -1.22,-2.07 -1.22,-3.4l0 -19.61c0,-2.4 1.04,-3.93 3.13,-4.6l5.74 -1.8 0 -83.03 -5.74 -1.8c-0.93,-0.27 -1.68,-0.83 -2.26,-1.7 -0.58,-0.87 -0.87,-1.83 -0.87,-2.9l0 -19.61c0,-1.07 0.41,-2.2 1.22,-3.4 0.81,-0.93 1.8,-1.4 2.96,-1.4l89.48 0c1.16,0 2.15,0.47 2.96,1.4 0.81,0.93 1.22,2.07 1.22,3.4l0 32.41c0,1.33 -0.41,2.47 -1.22,3.4 -0.81,0.93 -1.8,1.4 -2.96,1.4l-17.06 0c-0.93,0 -1.77,-0.33 -2.53,-1 -0.75,-0.67 -1.25,-1.53 -1.48,-2.6l-1.57 -6.6 -31.16 0 0 24.01 27.51 0c1.28,0 2.29,0.47 3.05,1.4 0.75,0.93 1.13,2.07 1.13,3.4l0 21.21c0,1.47 -0.38,2.67 -1.13,3.6 -0.76,0.93 -1.77,1.4 -3.05,1.4l-27.51 0 0 26.01 31.68 0 1.57 -6.6c0.23,-1.07 0.73,-1.93 1.48,-2.6 0.75,-0.67 1.6,-1 2.53,-1l17.06 0z"/>
   <path id="_15" class="fil2" d="M1219.41 62.46c1.28,0 2.29,0.47 3.05,1.4 0.75,0.93 1.13,2.07 1.13,3.4l0 19.61c0,2.53 -1.04,4.13 -3.13,4.8l-6.62 2 -30.99 110.24c-0.23,1.07 -0.73,1.9 -1.48,2.5 -0.76,0.6 -1.6,0.9 -2.53,0.9l-33.95 0c-2.09,0 -3.42,-1.13 -4,-3.4l-30.81 -110.24 -6.79 -2c-2.09,-0.67 -3.13,-2.27 -3.13,-4.8l0 -19.61c0,-1.33 0.41,-2.47 1.22,-3.4 0.81,-0.93 1.8,-1.4 2.96,-1.4l40.91 0c1.28,0 2.29,0.47 3.05,1.4 0.75,0.93 1.13,2.07 1.13,3.4l0 19.61c0,2.53 -1.04,4.13 -3.13,4.8l-4.53 1.4 20.02 72.62 20.19 -72.83 -4.53 -1.2c-2.09,-0.67 -3.13,-2.27 -3.13,-4.8l0 -19.61c0,-1.33 0.41,-2.47 1.22,-3.4 0.81,-0.93 1.8,-1.4 2.96,-1.4l40.91 0z"/>
   <path id="_16" class="fil2" d="M1322.81 165.49c1.16,0 2.15,0.47 2.96,1.4 0.81,0.93 1.22,2.07 1.22,3.4l0 32.41c0,1.47 -0.41,2.63 -1.22,3.5 -0.81,0.87 -1.8,1.3 -2.96,1.3l-90 0c-1.16,0 -2.15,-0.47 -2.96,-1.4 -0.81,-0.93 -1.22,-2.07 -1.22,-3.4l0 -19.61c0,-2.4 1.04,-3.93 3.13,-4.6l5.74 -1.8 0 -83.03 -5.74 -1.8c-0.93,-0.27 -1.68,-0.83 -2.26,-1.7 -0.58,-0.87 -0.87,-1.83 -0.87,-2.9l0 -19.61c0,-1.07 0.41,-2.2 1.22,-3.4 0.81,-0.93 1.8,-1.4 2.96,-1.4l89.48 0c1.16,0 2.15,0.47 2.96,1.4 0.81,0.93 1.22,2.07 1.22,3.4l0 32.41c0,1.33 -0.41,2.47 -1.22,3.4 -0.81,0.93 -1.8,1.4 -2.96,1.4l-17.06 0c-0.93,0 -1.77,-0.33 -2.53,-1 -0.75,-0.67 -1.25,-1.53 -1.48,-2.6l-1.57 -6.6 -31.16 0 0 24.01 27.51 0c1.28,0 2.29,0.47 3.05,1.4 0.75,0.93 1.13,2.07 1.13,3.4l0 21.21c0,1.47 -0.38,2.67 -1.13,3.6 -0.76,0.93 -1.77,1.4 -3.05,1.4l-27.51 0 0 26.01 31.68 0 1.57 -6.6c0.23,-1.07 0.73,-1.93 1.48,-2.6 0.75,-0.67 1.6,-1 2.53,-1l17.06 0z"/>
   <path id="_17" class="fil2" d="M1427.61 165.49c1.16,0 2.15,0.47 2.96,1.4 0.81,0.93 1.22,2.07 1.22,3.4l0 32.41c0,1.47 -0.41,2.6 -1.22,3.4 -0.7,0.93 -1.68,1.4 -2.96,1.4l-86.34 0c-1.16,0 -2.15,-0.47 -2.96,-1.4 -0.81,-0.93 -1.22,-2.07 -1.22,-3.4l0 -19.61c0,-2.4 1.04,-3.93 3.13,-4.6l5.74 -1.8 0 -83.03 -5.74 -1.6c-2.09,-0.67 -3.13,-2.27 -3.13,-4.8l0 -19.61c0,-1.33 0.41,-2.47 1.22,-3.4 0.81,-0.93 1.8,-1.4 2.96,-1.4l40.39 0c1.28,0 2.32,0.47 3.13,1.4 0.81,0.93 1.22,2.07 1.22,3.4l0 19.61c0,1.07 -0.29,2.07 -0.87,3 -0.58,0.93 -1.33,1.53 -2.26,1.8l-5.92 1.6 0 82.03 28.03 0 1.57 -6.6c0.23,-1.07 0.73,-1.93 1.48,-2.6 0.76,-0.67 1.6,-1 2.53,-1l17.06 0z"/>
   <path class="fil3" d="M353.7 237.64l33.01 0 -3.3 13.39 -28.22 0c-3.71,0 -6.54,2.54 -8.48,7.61 -1.21,3.27 -1.81,6.91 -1.81,10.93 0,6.23 1.3,11.02 3.89,14.35 1.77,2.22 3.9,3.33 6.41,3.33l31.52 0 -3.3 13.39 -29.71 0c-7.03,0 -12.57,-3.6 -16.63,-10.78 -3.4,-5.96 -5.11,-13.05 -5.11,-21.23 0,-8.67 1.88,-15.9 5.63,-21.72 4.02,-6.13 9.39,-9.21 16.12,-9.26z"/>
   <path id="_1_0" class="fil3" d="M433.56 275.67l0 -38.03 12.24 0 0 38.03c0,10.62 -3.89,18.12 -11.65,22.5 -4.53,2.54 -10.01,3.81 -16.44,3.81 -9.54,0 -16.74,-2.93 -21.62,-8.8 -3.76,-4.54 -5.63,-10.37 -5.63,-17.51l0 -35.58 12.29 -4.03 0 39.61c0,5.87 2.18,9.64 6.54,11.33 2.29,0.91 5.28,1.35 8.99,1.35 8.07,0 12.92,-2.52 14.57,-7.53 0.48,-1.53 0.71,-3.25 0.71,-5.15z"/>
   <path id="_2_1" class="fil3" d="M470.45 275.83c-6.9,0 -12.04,-2.69 -15.41,-8.09 -2.02,-3.22 -3.04,-6.86 -3.04,-10.93 0,-5.5 1.69,-10.06 5.08,-13.71 3.38,-3.64 7.84,-5.46 13.36,-5.46l34.95 0 -3.3 13.39 -31.51 0c-2.64,0 -4.39,1.19 -5.25,3.57 -0.27,0.73 -0.39,1.47 -0.39,2.22 0,2.27 0.91,3.93 2.72,4.99 0.86,0.47 1.83,0.72 2.92,0.72l17.73 0c6.6,0 11.61,2.58 15.01,7.76 2.17,3.33 3.24,7.1 3.24,11.33 0,5.49 -1.68,10.03 -5.05,13.63 -3.36,3.58 -7.76,5.38 -13.2,5.38l-36.31 0 3.3 -13.39 32.87 0c2.67,0 4.43,-1.16 5.25,-3.49 0.25,-0.69 0.39,-1.41 0.39,-2.14 0,-2.27 -0.86,-3.94 -2.59,-4.99 -0.91,-0.54 -1.92,-0.8 -3.05,-0.8l-17.73 0z"/>
   <polygon id="_3_2" class="fil3" points="509.73,251.03 509.73,237.64 563.51,237.64 560.22,251.03 540.99,251.03 540.99,300.63 528.69,300.63 528.69,251.03 "/>
   <path id="_4_3" class="fil3" d="M578.26 269.18c0,9.03 2.71,14.82 8.1,17.35 2.54,1.22 5.78,1.83 9.71,1.83 9.19,0 14.73,-3.86 16.63,-11.58 0.51,-2.27 0.77,-4.8 0.77,-7.6 0,-10.3 -3.62,-16.46 -10.88,-18.46 -1.93,-0.53 -4.12,-0.8 -6.53,-0.8 -8.33,0 -13.71,2.91 -16.11,8.72 -1.13,2.8 -1.69,6.3 -1.69,10.54zm48.16 0c0,12.36 -3.91,21.39 -11.72,27.1 -5.21,3.8 -11.64,5.71 -19.28,5.71 -9.37,0 -16.78,-3.07 -22.26,-9.2 -5.22,-5.87 -7.84,-13.74 -7.84,-23.61 0,-11.67 3.55,-20.48 10.61,-26.38 5.27,-4.34 11.76,-6.51 19.48,-6.51 10.18,0 18.06,3.25 23.62,9.75 4.92,5.76 7.38,13.47 7.38,23.14z"/>
   <polygon id="_5_4" class="fil3" points="684.27,237.64 696.5,237.64 696.5,300.63 684.27,300.63 684.27,264.42 668.61,298.58 660.39,298.58 644.73,265.85 644.73,300.63 632.49,300.63 632.49,240.09 644.73,236.06 664.59,280.59 "/>
   <path id="_6_5" class="fil3" d="M728.53 260.38l12.24 -4.03 0 30.9 19.28 0c3.71,0 6.52,-2.51 8.42,-7.53 1.25,-3.22 1.87,-6.87 1.87,-10.93 0,-6.23 -1.27,-11.02 -3.81,-14.35 -1.77,-2.27 -3.93,-3.41 -6.47,-3.41l-31.52 0 3.3 -13.39 29.71 0c6.98,0 12.53,3.58 16.63,10.78 3.4,6.02 5.1,13.12 5.1,21.31 0,8.71 -1.9,15.94 -5.69,21.71 -4.02,6.07 -9.37,9.14 -16.05,9.2l-33.01 0 0 -40.26z"/>
   <polygon id="_7_6" class="fil3" points="785.29,251.03 785.29,237.64 839.07,237.64 835.78,251.03 816.55,251.03 816.55,300.63 804.25,300.63 804.25,251.03 "/>
   <path id="_8_7" class="fil3" d="M856.94 275.91l0 24.72 -12.24 0c0,0 0,-21 0,-62.99 0,0 16.38,0 49.12,0l-3.36 13.39 -33.52 0 0 11.49 31.26 0 0 13.39 -31.26 0z"/>
   <polygon id="_9_8" class="fil3" points="917.06,251.03 917.06,237.64 970.83,237.64 967.54,251.03 948.31,251.03 948.31,300.63 936.02,300.63 936.02,251.03 "/>
   <path id="_10_9" class="fil3" d="M976.4 260.31l12.24 -4.04 0 11.09c0,0 7.31,0 21.94,0 2.42,0 4.1,-1.47 5.05,-4.44 0.39,-1.22 0.59,-2.49 0.59,-3.8 0,-3.23 -0.88,-5.57 -2.65,-7.06 -0.91,-0.69 -1.9,-1.03 -2.98,-1.03l-34.17 0 3.3 -13.39 31 0c6.34,0 11.25,2.83 14.76,8.48 2.45,4.02 3.69,8.57 3.69,13.7 0,6.13 -1.69,11.18 -5.05,15.15 -1.77,2.06 -3.84,3.56 -6.22,4.5l12.75 21.17 -14.42 0 -11.2 -19.89 -16.37 0 0 19.89 -12.24 0 0 -40.33z"/>
   <polygon id="_11_10" class="fil3" points="1051.86,292.24 1056.32,279.4 1070.69,279.4 1060.66,253.25 1042.74,300.63 1029.86,300.63 1054.26,240.09 1066.55,236.06 1091.85,300.63 1078.91,300.63 1075.67,292.24 "/>
   <path id="_12_11" class="fil3" d="M1134.7 237.64l12.24 0c0,0 0,20.99 0,62.99l-12.24 0 -26.92 -41.52 0 41.52 -12.24 0 0 -60.55 12.24 -4.03 26.92 41.52 0 -39.94z"/>
   <path id="_13_12" class="fil3" d="M1173.21 275.83c-6.9,0 -12.04,-2.69 -15.41,-8.09 -2.02,-3.22 -3.04,-6.86 -3.04,-10.93 0,-5.5 1.69,-10.06 5.08,-13.71 3.38,-3.64 7.84,-5.46 13.36,-5.46l34.95 0 -3.3 13.39 -31.51 0c-2.64,0 -4.38,1.19 -5.25,3.57 -0.27,0.73 -0.39,1.47 -0.39,2.22 0,2.27 0.91,3.93 2.72,4.99 0.86,0.47 1.83,0.72 2.92,0.72l17.73 0c6.6,0 11.61,2.58 15.01,7.76 2.17,3.33 3.24,7.1 3.24,11.33 0,5.49 -1.68,10.03 -5.05,13.63 -3.36,3.58 -7.77,5.38 -13.2,5.38l-36.31 0 3.3 -13.39 32.87 0c2.67,0 4.43,-1.16 5.25,-3.49 0.25,-0.69 0.39,-1.41 0.39,-2.14 0,-2.27 -0.86,-3.94 -2.58,-4.99 -0.91,-0.54 -1.92,-0.8 -3.05,-0.8l-17.73 0z"/>
   <path id="_14_13" class="fil3" d="M1228.87 275.91l0 24.72 -12.24 0c0,0 0,-21 0,-62.99 0,0 16.38,0 49.12,0l-3.36 13.39 -33.52 0 0 11.49 31.26 0 0 13.39 -31.26 0z"/>
   <polygon id="_15_14" class="fil3" points="1283.16,275.91 1283.16,287.25 1320.7,287.25 1317.39,300.63 1270.93,300.63 1270.93,237.64 1320.7,237.64 1317.39,251.03 1283.16,251.03 1283.16,262.53 1315.06,262.53 1315.06,275.91 "/>
   <path id="_16_15" class="fil3" d="M1328.01 260.31l12.24 -4.04 0 11.09c0,0 7.31,0 21.93,0 2.42,0 4.1,-1.47 5.05,-4.44 0.39,-1.22 0.59,-2.49 0.59,-3.8 0,-3.23 -0.88,-5.57 -2.65,-7.06 -0.91,-0.69 -1.9,-1.03 -2.98,-1.03l-34.17 0 3.3 -13.39 31 0c6.34,0 11.25,2.83 14.76,8.48 2.45,4.02 3.69,8.57 3.69,13.7 0,6.13 -1.69,11.18 -5.05,15.15 -1.77,2.06 -3.84,3.56 -6.22,4.5l12.75 21.17 -14.42 0 -11.2 -19.89 -16.37 0 0 19.89 -12.24 0 0 -40.33z"/>
   <path id="_17_16" class="fil3" d="M1403.99 275.83c-6.9,0 -12.04,-2.69 -15.41,-8.09 -2.02,-3.22 -3.04,-6.86 -3.04,-10.93 0,-5.5 1.69,-10.06 5.08,-13.71 3.38,-3.64 7.84,-5.46 13.36,-5.46l34.95 0 -3.3 13.39 -31.51 0c-2.64,0 -4.39,1.19 -5.25,3.57 -0.27,0.73 -0.39,1.47 -0.39,2.22 0,2.27 0.91,3.93 2.72,4.99 0.86,0.47 1.83,0.72 2.92,0.72l17.73 0c6.6,0 11.61,2.58 15.01,7.76 2.17,3.33 3.24,7.1 3.24,11.33 0,5.49 -1.68,10.03 -5.05,13.63 -3.36,3.58 -7.76,5.38 -13.2,5.38l-36.31 0 3.3 -13.39 32.87 0c2.67,0 4.43,-1.16 5.25,-3.49 0.25,-0.69 0.39,-1.41 0.39,-2.14 0,-2.27 -0.86,-3.94 -2.58,-4.99 -0.91,-0.54 -1.92,-0.8 -3.05,-0.8l-17.73 0z"/>
  </g>
  <path class="fil3" d="M215.48 143.75l-18.81 4.91c16.35,19.79 15.26,49.14 -3.27,67.67 -19.67,19.67 -51.57,19.67 -71.24,0 -1.06,-1.07 -2.06,-2.17 -3.01,-3.31l-56.46 56.46c-49.09,-49.08 -49.09,-128.64 0,-177.72l70.36 -70.37c-31.6,5.31 -61.91,20.14 -86.3,44.52 -62.34,62.35 -62.33,163.46 0.02,225.81 17.16,17.16 37.26,29.58 58.67,37.3 51.24,-51.24 103.41,-103.41 103.41,-103.41 22.27,-22.27 24.47,-57.1 6.63,-81.87zm57.1 -77.83l0 0c-14.96,-14.95 -32.14,-26.31 -50.49,-34.09l20.38 -31.82c-31.98,31.98 -135.77,135.78 -135.77,135.78 -22.27,22.27 -24.47,57.1 -6.63,81.87l18.82 -4.91c-16.35,-19.79 -15.26,-49.15 3.25,-67.67 19.68,-19.68 51.58,-19.67 71.26,0 1.06,1.06 2.06,2.17 3.01,3.3l56.46 -56.46c49.08,49.08 49.08,128.64 0,177.72l-94.81 94.81 49.17 -33.19c23.9,-7.43 46.4,-20.6 65.32,-39.52 62.36,-62.37 62.39,-163.46 0.03,-225.81z"/>
 </g>
</svg>
